<svg xmlns="http://www.w3.org/2000/svg" viewBox="0 0 160 54"><defs><style>.a{fill:#fff;}.b{fill:none;stroke:#fff;stroke-linecap:round;stroke-linejoin:round;stroke-width:2px;}</style></defs><title>map-swap</title><path class="a" d="M31.81,4.28A22.72,22.72,0,1,1,9.08,27,22.75,22.75,0,0,1,31.81,4.28m0-2A24.7,24.7,0,1,0,56.51,27,24.7,24.7,0,0,0,31.81,2.3Z"/><path class="a" d="M31.74,46.14h0a1,1,0,0,1-.88-.54c-.42-.82-10.37-20.18-10.37-26a11.25,11.25,0,1,1,22.5,0c0,5.84-9.95,25.2-10.37,26A1,1,0,0,1,31.74,46.14Zm0-35.83a9.28,9.28,0,0,0-9.27,9.27c0,4,6,17,9.27,23.38C35,36.54,41,23.63,41,19.59A9.28,9.28,0,0,0,31.74,10.32Z"/><path class="a" d="M31.74,23.32A5.24,5.24,0,1,1,37,18.08,5.24,5.24,0,0,1,31.74,23.32Zm0-8.5A3.26,3.26,0,1,0,35,18.08,3.27,3.27,0,0,0,31.74,14.82Z"/><line class="b" x1="65.14" y1="27" x2="92.93" y2="27"/><polygon class="a" points="66.02 29.99 60.84 27 66.02 24.01 66.02 29.99"/><polygon class="a" points="92.05 29.99 97.23 27 92.05 24.01 92.05 29.99"/><path class="a" d="M126.27,4.28A22.72,22.72,0,1,1,103.54,27,22.75,22.75,0,0,1,126.27,4.28m0-2A24.7,24.7,0,1,0,151,27a24.7,24.7,0,0,0-24.7-24.7Z"/><line class="b" x1="123.05" y1="20.8" x2="133.83" y2="20.8"/><line class="b" x1="118.92" y1="20.8" x2="118.71" y2="20.8"/><line class="b" x1="123.05" y1="27" x2="133.83" y2="27"/><line class="b" x1="118.92" y1="27" x2="118.71" y2="27"/><line class="b" x1="123.05" y1="33.2" x2="133.83" y2="33.2"/><line class="b" x1="118.92" y1="33.2" x2="118.71" y2="33.2"/></svg>