<?xml version="1.0" encoding="utf-8"?>
<!-- Generator: Adobe Illustrator 21.0.0, SVG Export Plug-In . SVG Version: 6.00 Build 0)  -->
<svg version="1.1" id="Layer_1" xmlns="http://www.w3.org/2000/svg" xmlns:xlink="http://www.w3.org/1999/xlink" x="0px" y="0px"
	 viewBox="0 0 388.807 75.103" enable-background="new 0 0 388.807 75.103" xml:space="preserve">
<path fill="#FFFFFF" d="M374.095,14.666v45.709H14.669V14.666H374.095 M378.095,10.666h-4H14.669h-4v4v45.709v4h4h359.426h4v-4
	V14.666V10.666L378.095,10.666z"/>
<g>
	<path fill-rule="evenodd" clip-rule="evenodd" fill="#FFFFFF" d="M181.31,22.496l9.363,5.088c0,0,1.471-0.34,3.938-0.34
		c-0.713,0-7.41,5.441-7.41,15.062c0,4.902,2.988,9.961,3.686,9.961c-2.391,0-10.34-4.26-10.34-12.088
		c0-4.488,2.199-7.234,2.199-7.234L181.31,22.496z"/>
	<path fill-rule="evenodd" clip-rule="evenodd" fill="#FFFFFF" d="M206.865,22.496l-1.443,10.488c0,0,2.203,2.967,2.203,7.27
		c0,4.992-4.344,12.287-12.398,12.287c0,0-6.209,0.6-6.209-10.488c0-10.207,8.576-14.443,8.576-14.443L206.865,22.496z"/>
</g>
<g>
	<path fill="#FFFFFF" d="M25.425,49.525v-24.01h13.605c4.787,0,7.02,3.096,7.02,6.119c0,2.986-1.836,5.002-4.104,5.506
		c2.557,0.397,4.572,2.844,4.572,5.867c0,3.492-2.34,6.518-7.057,6.518H25.425z M39.751,32.785c0-1.15-0.865-1.871-2.125-1.871
		h-6.01v3.744h6.01C38.886,34.658,39.751,33.975,39.751,32.785z M40.218,42.072c0-1.188-0.863-2.016-2.375-2.016h-6.226v4.066h6.226
		C39.32,44.123,40.218,43.367,40.218,42.072z"/>
	<path fill="#FFFFFF" d="M63.665,49.525v-24.01h6.191v18.607h9.646v5.402H63.665z"/>
	<path fill="#FFFFFF" d="M134.841,49.525v-24.01h17.602v5.398h-11.41v3.744h11.158v5.398h-11.158v4.066h11.41v5.402H134.841z"/>
	<path fill="#FFFFFF" d="M96.634,39.836V25.547l6.301,2.822v11.25c0,2.844,1.727,4.896,5.074,4.896c3.313,0,5.039-2.053,5.039-4.896
		v-11.25l6.264-2.822v14.252c0,5.977-3.6,10.189-11.303,10.189C100.306,49.988,96.634,45.738,96.634,39.836z"/>
</g>
<g>
	<path fill="#FFFFFF" d="M235.134,37.768c0-7.414,5.615-12.418,12.994-12.418c5.795,0,8.926,3.275,10.475,6.406l-5.328,2.557
		c-0.791-1.908-2.844-3.492-5.146-3.492c-3.924,0-6.695,2.988-6.695,6.947c0,3.924,2.771,6.947,6.695,6.947
		c2.303,0,4.355-1.584,5.146-3.492l5.328,2.52c-1.549,3.061-4.68,6.445-10.475,6.445C240.749,50.188,235.134,45.146,235.134,37.768z
		"/>
	<path fill="#FFFFFF" d="M317.79,49.756V31.145h-6.73v-5.398h19.617v5.398h-6.695v18.611H317.79z"/>
	<path fill="#FFFFFF" d="M342.677,46.369l3.275-4.822c1.728,1.727,4.393,3.168,7.703,3.168c2.088,0,3.385-0.721,3.385-1.908
		c0-3.168-13.57-0.541-13.57-9.789c0-4.033,3.383-7.633,9.537-7.633c3.852,0,7.199,1.152,9.756,3.348l-3.383,4.644
		c-2.017-1.691-4.645-2.519-7.02-2.519c-1.801,0-2.592,0.611-2.592,1.656c0,2.951,13.57,0.719,13.57,9.645
		c0,4.826-3.564,8.029-10.008,8.029C348.472,50.188,345.089,48.641,342.677,46.369z"/>
	<path fill="#FFFFFF" d="M289.837,48.141l-0.631-1.842h-9.467l-0.619,1.797l-7.725,2.023l9.172-24.373h7.811l9.186,24.373
		L289.837,48.141z M284.49,31.865l-3.059,9.033h6.082L284.49,31.865z"/>
</g>
</svg>
