<svg xmlns="http://www.w3.org/2000/svg" viewBox="0 0 160 54"><defs><style>.a{fill:#fff;}.b,.c{fill:none;stroke:#fff;stroke-linecap:round;stroke-linejoin:round;}.b{stroke-width:2px;}.c{stroke-width:3px;}</style></defs><title>Artboard 1</title><path class="a" d="M31.81,5A22.72,22.72,0,1,1,9.08,27.71,22.75,22.75,0,0,1,31.81,5m0-2a24.7,24.7,0,1,0,24.7,24.7A24.7,24.7,0,0,0,31.81,3Z"/><line class="b" x1="65.14" y1="27.71" x2="92.93" y2="27.71"/><polygon class="a" points="66.02 30.7 60.84 27.71 66.02 24.71 66.02 30.7"/><polygon class="a" points="92.05 30.7 97.23 27.71 92.05 24.71 92.05 30.7"/><path class="a" d="M126.27,5a22.72,22.72,0,1,1-22.72,22.72A22.75,22.75,0,0,1,126.27,5m0-2A24.7,24.7,0,1,0,151,27.71,24.7,24.7,0,0,0,126.27,3Z"/><line class="b" x1="123.05" y1="21.51" x2="133.83" y2="21.51"/><line class="b" x1="118.92" y1="21.51" x2="118.71" y2="21.51"/><line class="b" x1="123.05" y1="27.71" x2="133.83" y2="27.71"/><line class="b" x1="118.92" y1="27.71" x2="118.71" y2="27.71"/><line class="b" x1="123.05" y1="33.91" x2="133.83" y2="33.91"/><line class="b" x1="118.92" y1="33.91" x2="118.71" y2="33.91"/><line class="c" x1="24.39" y1="21.51" x2="24.17" y2="21.51"/><line class="c" x1="24.39" y1="27.71" x2="24.17" y2="27.71"/><line class="c" x1="24.39" y1="33.91" x2="24.17" y2="33.91"/><line class="c" x1="31.92" y1="21.51" x2="31.7" y2="21.51"/><line class="c" x1="31.92" y1="27.71" x2="31.7" y2="27.71"/><line class="c" x1="31.92" y1="33.91" x2="31.7" y2="33.91"/><line class="c" x1="39.44" y1="21.51" x2="39.22" y2="21.51"/><line class="c" x1="39.44" y1="27.71" x2="39.22" y2="27.71"/><line class="c" x1="39.44" y1="33.91" x2="39.22" y2="33.91"/></svg>